<?xml version="1.0" encoding="UTF-8"?>
<svg width="130px" height="129px" viewBox="0 0 130 129" version="1.1" xmlns="http://www.w3.org/2000/svg" xmlns:xlink="http://www.w3.org/1999/xlink">
    <!-- Generator: Sketch 52.6 (67491) - http://www.bohemiancoding.com/sketch -->
    <title>Group 15</title>
    <desc>Created with Sketch.</desc>
    <g id="1366" stroke="none" stroke-width="1" fill="none" fill-rule="evenodd">
        <g id="2.2.2.-Busqueda-no-encontrada" transform="translate(-780.000000, -273.000000)" fill="#D6DBE0">
            <g id="mensaje" transform="translate(367.000000, 176.000000)">
                <g id="Group-15" transform="translate(413.000000, 97.000000)">
                    <g>
                        <path d="M46.5833333,4.333225 C35.29825,4.333225 24.6880833,8.72830833 16.70825,16.7081417 C8.72841667,24.687975 4.33333333,35.2981417 4.33333333,46.583225 C4.33333333,57.8683083 8.72841667,68.478475 16.70825,76.4593917 C24.6880833,84.4381417 35.29825,88.833225 46.5833333,88.833225 C57.8684167,88.833225 68.4785833,84.4381417 76.4584167,76.4593917 C84.43825,68.478475 88.8333333,57.8683083 88.8333333,46.583225 C88.8333333,35.2981417 84.43825,24.687975 76.4584167,16.7081417 C68.4785833,8.72830833 57.8684167,4.333225 46.5833333,4.333225 M46.5833333,93.1448917 C34.65475,93.1448917 22.7261667,88.6046417 13.6445833,79.5230583 C4.84575,70.724225 0,59.0263917 0,46.583225 C0,34.1400583 4.84575,22.442225 13.6445833,13.644475 C22.4423333,4.84564167 34.1401667,-0.000108333333 46.5833333,-0.000108333333 C59.0265,-0.000108333333 70.7243333,4.84564167 79.5220833,13.644475 C88.3209167,22.442225 93.1666667,34.1400583 93.1666667,46.583225 C93.1666667,59.0263917 88.3209167,70.724225 79.5220833,79.5230583 C70.4405,88.6046417 58.5119167,93.1448917 46.5833333,93.1448917" id="Fill-1"></path>
                        <path d="M78.7511833,94.7058667 C78.1965167,94.7058667 77.6429333,94.4946167 77.21935,94.0710333 L68.7931833,85.6448667 C67.9460167,84.7987833 67.9460167,83.4272833 68.7931833,82.5812 C69.6381833,81.7351167 71.0096833,81.7351167 71.85685,82.5812 L80.2830167,91.0073667 C81.1291,91.85345 81.1291,93.22495 80.2830167,94.0710333 C79.8605167,94.4946167 79.30585,94.7058667 78.7511833,94.7058667" id="Fill-4"></path>
                        <path d="M93.305225,80.151175 C92.7505583,80.151175 92.1958917,79.939925 91.7733917,79.5163417 L83.347225,71.090175 C82.5011417,70.2440917 82.5011417,68.8725917 83.347225,68.0265083 C84.192225,67.180425 85.5658917,67.180425 86.4108917,68.0265083 L94.8370583,76.452675 C95.6831417,77.2987583 95.6831417,78.6702583 94.8370583,79.5163417 C94.4145583,79.939925 93.8598917,80.151175 93.305225,80.151175" id="Fill-6"></path>
                        <path d="M78.7511833,99.1783 L99.8989333,120.32605 C105.6016,126.0298 114.88035,126.028717 120.581933,120.32605 C126.283517,114.623383 126.283517,105.344633 120.581933,99.64305 L99.4341833,78.4953 L78.7511833,99.1783 Z M110.23935,128.934217 C105.384933,128.934217 100.530517,127.08605 96.8341833,123.389717 L74.1546,100.710133 C73.3085167,99.86405 73.3085167,98.49255 74.1546,97.6464667 L97.90235,73.8998 C98.74735,73.0526333 100.121017,73.0526333 100.966017,73.8998 L123.6456,96.5793833 C131.037183,103.970967 131.037183,115.998133 123.6456,123.389717 C119.949267,127.08605 115.09485,128.934217 110.23935,128.934217 Z" id="Fill-8"></path>
                        <path d="M68.1579167,69.4020167 C67.49275,69.4020167 66.8265,69.1485167 66.3195,68.6404333 L25.5515,27.8735167 C24.5364167,26.85735 24.5364167,25.2106833 25.5515,24.1956 C26.5665833,23.1805167 28.21325,23.1805167 29.2283333,24.1956 L69.9963333,64.9636 C71.0114167,65.9786833 71.0114167,67.62535 69.9963333,68.6404333 C69.4893333,69.1485167 68.8230833,69.4020167 68.1579167,69.4020167" id="Fill-11"></path>
                        <path d="M27.3901333,69.4020167 C26.7249667,69.4020167 26.0587167,69.1485167 25.5517167,68.6404333 C24.5366333,67.62535 24.5366333,65.9786833 25.5517167,64.9636 L66.3197167,24.1956 C67.3348,23.1805167 68.9814667,23.1805167 69.99655,24.1956 C71.0116333,25.2106833 71.0116333,26.85735 69.99655,27.8735167 L29.22855,68.6404333 C28.72155,69.1485167 28.0553,69.4020167 27.3901333,69.4020167" id="Fill-13"></path>
                    </g>
                </g>
            </g>
        </g>
    </g>
</svg>